<svg width="19" height="19" viewBox="0 0 19 19" fill="none" xmlns="http://www.w3.org/2000/svg">
<g clip-path="url(#clip0_2295_9111)">
<path d="M2.17259 9.82038C2.17259 9.52508 1.93364 9.28613 1.63835 9.28613H0.534244C0.23895 9.28613 0 9.52508 0 9.82038C0 10.1157 0.23895 10.3546 0.534244 10.3546H1.63835C1.93364 10.3546 2.17259 10.1157 2.17259 9.82038Z" fill="white"/>
<path d="M17.7008 9.28613H16.5967C16.3014 9.28613 16.0625 9.52508 16.0625 9.82038C16.0625 10.1157 16.3014 10.3546 16.5967 10.3546H17.7008C17.9961 10.3546 18.2351 10.1157 18.2351 9.82038C18.2351 9.52508 17.9961 9.28613 17.7008 9.28613Z" fill="white"/>
<path fill-rule="evenodd" clip-rule="evenodd" d="M9.6524 2.34099C9.6524 2.63628 9.41345 2.87523 9.11816 2.87523C8.82286 2.87523 8.58391 2.63628 8.58391 2.34099V1.23688C8.58391 0.941586 8.82286 0.702637 9.11816 0.702637C9.41345 0.702637 9.6524 0.941586 9.6524 1.23688V2.34099ZM13.9264 14.6286V9.82041C13.9264 8.54687 13.4276 7.33962 12.5167 6.41617C11.5984 5.51098 10.3912 5.01221 9.11816 5.01221C6.46677 5.01221 4.30996 7.16902 4.30996 9.82041V14.6286H13.9264ZM8.58391 7.68343C8.58391 7.38813 8.82286 7.14918 9.11816 7.14918C9.41345 7.14918 9.6524 7.38813 9.6524 7.68343V9.82041C9.6524 10.1157 9.41345 10.3546 9.11816 10.3546C8.82286 10.3546 8.58391 10.1157 8.58391 9.82041V7.68343ZM9.11816 11.4231C9.4132 11.4231 9.6524 11.6623 9.6524 11.9574C9.6524 12.2524 9.4132 12.4916 9.11816 12.4916C8.82311 12.4916 8.58391 12.2524 8.58391 11.9574C8.58391 11.6623 8.82311 11.4231 9.11816 11.4231ZM16.5976 17.8697H14.9948V16.2313C14.9948 15.936 14.7559 15.6971 14.4606 15.6971H3.77571C3.48042 15.6971 3.24147 15.936 3.24147 16.2313V17.8697H1.63874C1.34344 17.8697 1.10449 18.1086 1.10449 18.4039C1.10449 18.6992 1.34344 18.9382 1.63874 18.9382H16.5976C16.8929 18.9382 17.1318 18.6992 17.1318 18.4039C17.1318 18.1086 16.8929 17.8697 16.5976 17.8697ZM3.45122 4.90945C3.65989 5.11812 3.99796 5.11816 4.20667 4.90945C4.41535 4.70077 4.41535 4.36267 4.20667 4.15399L3.45122 3.39854C3.24254 3.18986 2.90444 3.18986 2.69576 3.39854C2.48708 3.60721 2.48708 3.94532 2.69576 4.15399L3.45122 4.90945ZM15.5406 4.15399L14.7851 4.90945C14.5764 5.11816 14.2384 5.11812 14.0296 4.90945C13.821 4.70077 13.821 4.36267 14.0296 4.15399L14.7851 3.39854C14.9938 3.18986 15.3319 3.18986 15.5406 3.39854C15.7492 3.60721 15.7492 3.94532 15.5406 4.15399Z" fill="white"/>
</g>
<defs>
<clipPath id="clip0_2295_9111">
<rect width="18.2355" height="18.2355" fill="white" transform="translate(0 0.702637)"/>
</clipPath>
</defs>
</svg>
