<svg width="21" height="21" viewBox="0 0 21 21" fill="none" xmlns="http://www.w3.org/2000/svg">
<path d="M11.5 10.3L12.4 11.2C12.5833 11.3833 12.8167 11.475 13.1 11.475C13.3833 11.475 13.6167 11.3833 13.8 11.2C13.9833 11.0167 14.075 10.7833 14.075 10.5C14.075 10.2167 13.9833 9.98333 13.8 9.8L11.2 7.2C11 7 10.7667 6.9 10.5 6.9C10.2333 6.9 10 7 9.8 7.2L7.2 9.8C7.01667 9.98333 6.925 10.2167 6.925 10.5C6.925 10.7833 7.01667 11.0167 7.2 11.2C7.38333 11.3833 7.61667 11.475 7.9 11.475C8.18333 11.475 8.41667 11.3833 8.6 11.2L9.5 10.3L9.5 13.5C9.5 13.7833 9.59583 14.0208 9.7875 14.2125C9.97917 14.4042 10.2167 14.5 10.5 14.5C10.7833 14.5 11.0208 14.4042 11.2125 14.2125C11.4042 14.0208 11.5 13.7833 11.5 13.5L11.5 10.3ZM10.5 0.499999C11.8833 0.499999 13.1833 0.762498 14.4 1.2875C15.6167 1.8125 16.675 2.525 17.575 3.425C18.475 4.325 19.1875 5.38333 19.7125 6.6C20.2375 7.81667 20.5 9.11667 20.5 10.5C20.5 11.8833 20.2375 13.1833 19.7125 14.4C19.1875 15.6167 18.475 16.675 17.575 17.575C16.675 18.475 15.6167 19.1875 14.4 19.7125C13.1833 20.2375 11.8833 20.5 10.5 20.5C9.11667 20.5 7.81667 20.2375 6.6 19.7125C5.38333 19.1875 4.325 18.475 3.425 17.575C2.525 16.675 1.8125 15.6167 1.2875 14.4C0.762499 13.1833 0.500001 11.8833 0.500001 10.5C0.500001 9.11667 0.7625 7.81666 1.2875 6.6C1.8125 5.38333 2.525 4.325 3.425 3.425C4.325 2.525 5.38333 1.8125 6.6 1.2875C7.81667 0.762498 9.11667 0.499999 10.5 0.499999Z" fill="white"/>
</svg>
