<svg width="15" height="15" viewBox="0 0 15 15" fill="none" xmlns="http://www.w3.org/2000/svg">
<path d="M2.29101 6.94485C2.03213 6.94557 1.77875 7.01958 1.56018 7.1583C1.3416 7.29703 1.16677 7.4948 1.05591 7.72874C0.945044 7.96268 0.90268 8.22323 0.933718 8.48024C0.964756 8.73726 1.06793 8.98023 1.23129 9.18106L4.71389 13.4472C4.83806 13.6014 4.99723 13.7237 5.17817 13.8041C5.35912 13.8844 5.55661 13.9204 5.75425 13.909C6.17697 13.8863 6.5586 13.6602 6.80192 13.2884L14.0362 1.63767C14.0373 1.63574 14.0386 1.63381 14.0399 1.6319C14.1077 1.52768 14.0857 1.32114 13.9456 1.19139C13.9071 1.15576 13.8617 1.12839 13.8123 1.11096C13.7628 1.09352 13.7103 1.0864 13.658 1.09003C13.6057 1.09366 13.5546 1.10796 13.508 1.13206C13.4615 1.15615 13.4203 1.18953 13.3871 1.23013C13.3845 1.23333 13.3818 1.23647 13.3791 1.23957L6.08325 9.48276C6.05548 9.51413 6.02177 9.53967 5.98405 9.55789C5.94634 9.57612 5.90538 9.58667 5.86355 9.58894C5.82172 9.5912 5.77986 9.58513 5.7404 9.57107C5.70094 9.55702 5.66466 9.53527 5.63368 9.50708L3.21233 7.30363C2.96085 7.07311 2.63217 6.94511 2.29101 6.94485Z" fill="url(#paint0_linear_732_1380)"/>
<defs>
<linearGradient id="paint0_linear_732_1380" x1="7.50036" y1="1.08911" x2="7.50036" y2="21.0763" gradientUnits="userSpaceOnUse">
<stop stop-color="white"/>
<stop offset="1" stop-color="#999999"/>
</linearGradient>
</defs>
</svg>
