<svg width="18" height="18" viewBox="0 0 18 18" fill="none" xmlns="http://www.w3.org/2000/svg">
<path d="M10.897 7.10256L7.10195 10.8976C6.61445 10.4101 6.31445 9.74256 6.31445 9.00006C6.31445 7.51506 7.51445 6.31506 8.99945 6.31506C9.74195 6.31506 10.4095 6.61506 10.897 7.10256Z" stroke="white" stroke-opacity="0.26" stroke-width="1.5" stroke-linecap="round" stroke-linejoin="round"/>
<path d="M13.3639 4.32785C12.0514 3.33785 10.5514 2.79785 8.99891 2.79785C6.35141 2.79785 3.88391 4.35785 2.16641 7.05785C1.49141 8.11535 1.49141 9.89285 2.16641 10.9504C2.75891 11.8804 3.44891 12.6829 4.19891 13.3279" stroke="white" stroke-opacity="0.26" stroke-width="1.5" stroke-linecap="round" stroke-linejoin="round"/>
<path d="M6.31445 14.6473C7.16945 15.0073 8.07695 15.2023 8.99945 15.2023C11.647 15.2023 14.1145 13.6423 15.832 10.9423C16.507 9.88477 16.507 8.10727 15.832 7.04977C15.5845 6.65977 15.3145 6.29227 15.037 5.94727" stroke="white" stroke-opacity="0.26" stroke-width="1.5" stroke-linecap="round" stroke-linejoin="round"/>
<path d="M11.6345 9.52515C11.4395 10.5826 10.577 11.4451 9.51953 11.6401" stroke="white" stroke-opacity="0.26" stroke-width="1.5" stroke-linecap="round" stroke-linejoin="round"/>
<path d="M7.1025 10.8977L1.5 16.5002" stroke="white" stroke-opacity="0.26" stroke-width="1.5" stroke-linecap="round" stroke-linejoin="round"/>
<path d="M16.5009 1.5L10.8984 7.1025" stroke="white" stroke-opacity="0.26" stroke-width="1.5" stroke-linecap="round" stroke-linejoin="round"/>
</svg>
