<svg width="55" height="55" viewBox="0 0 55 55" fill="none" xmlns="http://www.w3.org/2000/svg">
<g clip-path="url(#clip0_44_493)">
<path d="M45.027 36.464C43.868 39.248 47.475 45.293 45.384 47.384C43.293 49.475 37.248 45.867 34.464 47.027C31.777 48.132 30.087 55 27 55C25.418 55 24.216 53.212 23.046 51.306C21.93 49.486 20.847 47.568 19.536 47.027C18.193 46.464 16.091 47.016 14.033 47.504C11.834 48.024 9.7 48.468 8.616 47.385C6.525 45.294 10.133 39.249 8.973 36.465C7.868 33.777 1 32.087 1 29C1 25.913 7.868 24.223 8.973 21.536C10.132 18.752 6.525 12.707 8.616 10.616C10.707 8.525 16.752 12.133 19.536 10.973C22.223 9.868 23.913 3 27 3C30.087 3 31.777 9.868 34.464 10.973C35.786 11.526 37.833 11.006 39.859 10.529C42.091 9.987 44.279 9.511 45.384 10.616C46.489 11.721 46.012 13.909 45.471 16.141C44.994 18.167 44.474 20.214 45.027 21.536C46.132 24.223 53 25.913 53 29C53 32.087 46.132 33.777 45.027 36.464Z" fill="#FFCE29"/>
<path d="M39 29C39 35.63 33.63 41 27 41C25.26 41 23.6 40.63 22.11 39.96C19.41 38.76 17.24 36.59 16.04 33.89C15.37 32.4 15 30.74 15 29C15 22.37 20.37 17 27 17C28.74 17 30.4 17.37 31.89 18.04C34.59 19.24 36.76 21.41 37.96 24.11C38.63 25.6 39 27.26 39 29Z" fill="#FFA500"/>
<path opacity="0.15" d="M38.9999 29C38.9999 35.63 33.6299 41 26.9999 41C25.2599 41 23.5999 40.63 22.1099 39.96C22.5899 37.7 24.5999 36 26.9999 36C28.0399 36 29.0299 35.78 29.9499 35.34C31.4599 34.64 32.6399 33.46 33.3299 31.98C33.7799 31.03 33.9999 30.04 33.9999 29C33.9999 26.6 35.6999 24.59 37.9599 24.11C38.6299 25.6 38.9999 27.26 38.9999 29Z" fill="black"/>
<path opacity="0.3" d="M31.89 18.04C31.41 20.3 29.4 22 27 22C25.96 22 24.97 22.22 24.05 22.66C22.54 23.36 21.36 24.54 20.67 26.02C20.22 26.97 20 27.96 20 29C20 31.4 18.3 33.41 16.04 33.89C15.37 32.4 15 30.74 15 29C15 22.37 20.37 17 27 17C28.74 17 30.4 17.37 31.89 18.04Z" fill="white"/>
<path d="M22.0782 25.522C21.6902 25.522 21.3032 25.373 21.0102 25.075C20.4282 24.485 20.4362 23.535 21.0262 22.954C21.7182 22.272 22.5232 21.715 23.4202 21.3C24.5212 20.771 25.7312 20.5 27.0002 20.5C27.8282 20.5 28.5002 21.171 28.5002 22C28.5002 22.829 27.8282 23.5 27.0002 23.5C26.1842 23.5 25.4082 23.673 24.6972 24.013C24.0982 24.291 23.5772 24.651 23.1312 25.09C22.8392 25.378 22.4582 25.522 22.0782 25.522Z" fill="white"/>
</g>
<defs>
<clipPath id="clip0_44_493">
<rect width="55" height="55" fill="white"/>
</clipPath>
</defs>
</svg>
