<svg width="16" height="16" viewBox="0 0 16 16" fill="none" xmlns="http://www.w3.org/2000/svg">
<path d="M2.8335 2.66669C2.0065 2.66669 1.3335 3.33969 1.3335 4.16669V11.8334C1.3335 11.9724 1.35838 12.1041 1.39404 12.2318C1.40771 12.1811 1.4216 12.1304 1.44027 12.0807L1.84652 11L2.20524 10.0443L3.11214 7.63023C3.40348 6.85423 4.15587 6.33335 4.98454 6.33335H14.0002V5.83335C14.0002 5.00635 13.3272 4.33335 12.5002 4.33335H8.01449L6.52425 3.09117C6.19558 2.81717 5.77874 2.66669 5.35107 2.66669H2.8335ZM4.98454 7.33335C4.56787 7.33335 4.19467 7.59179 4.04834 7.98179L2.37712 12.4323C2.21312 12.868 2.53515 13.3334 3.00081 13.3334H12.6825C13.0991 13.3334 13.4723 13.0749 13.6187 12.6849L15.2886 8.2383C15.4556 7.80197 15.1335 7.33335 14.6662 7.33335H4.98454Z" fill="white"/>
</svg>
