<svg width="80" height="31" viewBox="0 0 80 31" fill="none" xmlns="http://www.w3.org/2000/svg">
<path d="M0 8C0 3.58172 3.58172 0 8 0H72C76.4183 0 80 3.58172 80 8V23C80 27.4183 76.4183 31 72 31H0V8Z" fill="url(#paint0_linear_38_11)"/>
<mask id="path-2-outside-1_38_11" maskUnits="userSpaceOnUse" x="11" y="5.5" width="59" height="20" fill="black">
<rect fill="white" x="11" y="5.5" width="59" height="20"/>
<path d="M25.9836 10.85H19.3586L18.7586 14.225H25.2586L24.5836 18.075H18.0836L16.9586 24.5H12.9586L16.0336 7H26.6586L25.9836 10.85ZM40.9719 13.25C40.7552 14.4167 40.2885 15.4333 39.5719 16.3C38.8552 17.15 37.9635 17.7833 36.8969 18.2L39.4469 24.5H35.3969L33.1219 18.75H30.9469L29.9469 24.5H25.9469L29.0219 7H35.7719C37.4385 7 38.7969 7.63333 39.8469 8.9C40.8969 10.15 41.2719 11.6 40.9719 13.25ZM36.1219 14.625C36.5719 14.1917 36.8552 13.65 36.9719 13C37.0885 12.35 36.9719 11.8167 36.6219 11.4C36.2885 10.9667 35.7885 10.75 35.1219 10.75H32.3719L31.5719 15.25H34.5719C35.1719 15.25 35.6885 15.0417 36.1219 14.625ZM54.6027 10.85H47.7277L47.2027 13.775H53.4777L52.8027 17.525H46.5527L46.0027 20.65H53.0027L52.3277 24.5H41.3277L44.4027 7H55.2777L54.6027 10.85ZM67.8596 10.85H60.9846L60.4596 13.775H66.7346L66.0596 17.525H59.8096L59.2596 20.65H66.2596L65.5846 24.5H54.5846L57.6596 7H68.5346L67.8596 10.85Z"/>
</mask>
<path d="M25.9836 10.85H19.3586L18.7586 14.225H25.2586L24.5836 18.075H18.0836L16.9586 24.5H12.9586L16.0336 7H26.6586L25.9836 10.85ZM40.9719 13.25C40.7552 14.4167 40.2885 15.4333 39.5719 16.3C38.8552 17.15 37.9635 17.7833 36.8969 18.2L39.4469 24.5H35.3969L33.1219 18.75H30.9469L29.9469 24.5H25.9469L29.0219 7H35.7719C37.4385 7 38.7969 7.63333 39.8469 8.9C40.8969 10.15 41.2719 11.6 40.9719 13.25ZM36.1219 14.625C36.5719 14.1917 36.8552 13.65 36.9719 13C37.0885 12.35 36.9719 11.8167 36.6219 11.4C36.2885 10.9667 35.7885 10.75 35.1219 10.75H32.3719L31.5719 15.25H34.5719C35.1719 15.25 35.6885 15.0417 36.1219 14.625ZM54.6027 10.85H47.7277L47.2027 13.775H53.4777L52.8027 17.525H46.5527L46.0027 20.65H53.0027L52.3277 24.5H41.3277L44.4027 7H55.2777L54.6027 10.85ZM67.8596 10.85H60.9846L60.4596 13.775H66.7346L66.0596 17.525H59.8096L59.2596 20.65H66.2596L65.5846 24.5H54.5846L57.6596 7H68.5346L67.8596 10.85Z" fill="white"/>
<path d="M25.9836 10.85V11.85H26.8235L26.9686 11.0227L25.9836 10.85ZM19.3586 10.85V9.85H18.5207L18.374 10.675L19.3586 10.85ZM18.7586 14.225L17.774 14.05L17.5651 15.225H18.7586V14.225ZM25.2586 14.225L26.2436 14.3977L26.4492 13.225H25.2586V14.225ZM24.5836 18.075V19.075H25.4235L25.5686 18.2477L24.5836 18.075ZM18.0836 18.075V17.075H17.2435L17.0986 17.9025L18.0836 18.075ZM16.9586 24.5V25.5H17.7987L17.9436 24.6725L16.9586 24.5ZM12.9586 24.5L11.9737 24.3269L11.7676 25.5H12.9586V24.5ZM16.0336 7V6H15.194L15.0487 6.82694L16.0336 7ZM26.6586 7L27.6436 7.17269L27.8492 6H26.6586V7ZM25.9836 9.85H19.3586V11.85H25.9836V9.85ZM18.374 10.675L17.774 14.05L19.7432 14.4L20.3432 11.025L18.374 10.675ZM18.7586 15.225H25.2586V13.225H18.7586V15.225ZM24.2736 14.0523L23.5986 17.9023L25.5686 18.2477L26.2436 14.3977L24.2736 14.0523ZM24.5836 17.075H18.0836V19.075H24.5836V17.075ZM17.0986 17.9025L15.9736 24.3275L17.9436 24.6725L19.0686 18.2475L17.0986 17.9025ZM16.9586 23.5H12.9586V25.5H16.9586V23.5ZM13.9435 24.6731L17.0185 7.17306L15.0487 6.82694L11.9737 24.3269L13.9435 24.6731ZM16.0336 8H26.6586V6H16.0336V8ZM25.6736 6.82731L24.9986 10.6773L26.9686 11.0227L27.6436 7.17269L25.6736 6.82731ZM40.9719 13.25L41.9551 13.4326L41.9557 13.4289L40.9719 13.25ZM39.5719 16.3L40.3364 16.9446L40.3425 16.9373L39.5719 16.3ZM36.8969 18.2L36.533 17.2685L35.5901 17.6369L35.9699 18.5752L36.8969 18.2ZM39.4469 24.5V25.5H40.9305L40.3738 24.1248L39.4469 24.5ZM35.3969 24.5L34.467 24.8679L34.7171 25.5H35.3969V24.5ZM33.1219 18.75L34.0517 18.3821L33.8016 17.75H33.1219V18.75ZM30.9469 18.75V17.75H30.1058L29.9617 18.5787L30.9469 18.75ZM29.9469 24.5V25.5H30.788L30.9321 24.6713L29.9469 24.5ZM25.9469 24.5L24.962 24.3269L24.7558 25.5H25.9469V24.5ZM29.0219 7V6H28.1823L28.037 6.82694L29.0219 7ZM39.8469 8.9L39.077 9.5382L39.0812 9.54319L39.8469 8.9ZM36.1219 14.625L36.815 15.3458L36.8155 15.3453L36.1219 14.625ZM36.9719 13L37.9561 13.1767L36.9719 13ZM36.6219 11.4L35.8293 12.0097L35.8424 12.0267L35.8562 12.0432L36.6219 11.4ZM32.3719 10.75V9.75H31.534L31.3873 10.575L32.3719 10.75ZM31.5719 15.25L30.5873 15.075L30.3784 16.25H31.5719V15.25ZM39.9887 13.0674C39.8013 14.0765 39.4035 14.9344 38.8012 15.6627L40.3425 16.9373C41.1736 15.9323 41.7091 14.7569 41.9551 13.4326L39.9887 13.0674ZM38.8074 15.6554C38.2015 16.3739 37.4491 16.9107 36.533 17.2685L37.2607 19.1315C38.4779 18.656 39.5089 17.9261 40.3364 16.9446L38.8074 15.6554ZM35.9699 18.5752L38.5199 24.8752L40.3738 24.1248L37.8238 17.8248L35.9699 18.5752ZM39.4469 23.5H35.3969V25.5H39.4469V23.5ZM36.3267 24.1321L34.0517 18.3821L32.192 19.1179L34.467 24.8679L36.3267 24.1321ZM33.1219 17.75H30.9469V19.75H33.1219V17.75ZM29.9617 18.5787L28.9617 24.3287L30.9321 24.6713L31.9321 18.9213L29.9617 18.5787ZM29.9469 23.5H25.9469V25.5H29.9469V23.5ZM26.9318 24.6731L30.0068 7.17306L28.037 6.82694L24.962 24.3269L26.9318 24.6731ZM29.0219 8H35.7719V6H29.0219V8ZM35.7719 8C37.1453 8 38.2198 8.50414 39.077 9.53819L40.6168 8.26181C39.3739 6.76253 37.7317 6 35.7719 6V8ZM39.0812 9.54319C39.9338 10.5582 40.2364 11.7047 39.988 13.0711L41.9557 13.4289C42.3073 11.4953 41.86 9.7418 40.6126 8.25681L39.0812 9.54319ZM36.8155 15.3453C37.4262 14.7573 37.8045 14.0214 37.9561 13.1767L35.9876 12.8233C35.9059 13.2786 35.7176 13.6261 35.4282 13.9047L36.8155 15.3453ZM37.9561 13.1767C38.1129 12.3031 37.9692 11.4492 37.3876 10.7568L35.8562 12.0432C35.9745 12.1841 36.0641 12.3969 35.9876 12.8233L37.9561 13.1767ZM37.4145 10.7903C36.85 10.0564 36.0232 9.75 35.1219 9.75V11.75C35.5539 11.75 35.7271 11.8769 35.8293 12.0097L37.4145 10.7903ZM35.1219 9.75H32.3719V11.75H35.1219V9.75ZM31.3873 10.575L30.5873 15.075L32.5564 15.425L33.3564 10.925L31.3873 10.575ZM31.5719 16.25H34.5719V14.25H31.5719V16.25ZM34.5719 16.25C35.4309 16.25 36.1958 15.9412 36.815 15.3458L35.4288 13.9042C35.1813 14.1421 34.9129 14.25 34.5719 14.25V16.25ZM54.6027 10.85V11.85H55.4427L55.5877 11.0227L54.6027 10.85ZM47.7277 10.85V9.85H46.8912L46.7435 10.6733L47.7277 10.85ZM47.2027 13.775L46.2185 13.5983L46.0073 14.775H47.2027V13.775ZM53.4777 13.775L54.4619 13.9522L54.6738 12.775H53.4777V13.775ZM52.8027 17.525V18.525H53.6388L53.7869 17.7022L52.8027 17.525ZM46.5527 17.525V16.525H45.7134L45.5679 17.3517L46.5527 17.525ZM46.0027 20.65L45.0179 20.4767L44.8114 21.65H46.0027V20.65ZM53.0027 20.65L53.9877 20.8227L54.1933 19.65H53.0027V20.65ZM52.3277 24.5V25.5H53.1677L53.3127 24.6727L52.3277 24.5ZM41.3277 24.5L40.3428 24.3269L40.1367 25.5H41.3277V24.5ZM44.4027 7V6H43.5631L43.4178 6.82694L44.4027 7ZM55.2777 7L56.2627 7.17269L56.4683 6H55.2777V7ZM54.6027 9.85H47.7277V11.85H54.6027V9.85ZM46.7435 10.6733L46.2185 13.5983L48.187 13.9517L48.712 11.0267L46.7435 10.6733ZM47.2027 14.775H53.4777V12.775H47.2027V14.775ZM52.4936 13.5978L51.8186 17.3478L53.7869 17.7022L54.4619 13.9522L52.4936 13.5978ZM52.8027 16.525H46.5527V18.525H52.8027V16.525ZM45.5679 17.3517L45.0179 20.4767L46.9876 20.8233L47.5376 17.6983L45.5679 17.3517ZM46.0027 21.65H53.0027V19.65H46.0027V21.65ZM52.0178 20.4773L51.3428 24.3273L53.3127 24.6727L53.9877 20.8227L52.0178 20.4773ZM52.3277 23.5H41.3277V25.5H52.3277V23.5ZM42.3126 24.6731L45.3876 7.17306L43.4178 6.82694L40.3428 24.3269L42.3126 24.6731ZM44.4027 8H55.2777V6H44.4027V8ZM54.2928 6.82731L53.6178 10.6773L55.5877 11.0227L56.2627 7.17269L54.2928 6.82731ZM67.8596 10.85V11.85H68.6995L68.8446 11.0227L67.8596 10.85ZM60.9846 10.85V9.85H60.1481L60.0003 10.6733L60.9846 10.85ZM60.4596 13.775L59.4753 13.5983L59.2641 14.775H60.4596V13.775ZM66.7346 13.775L67.7188 13.9522L67.9306 12.775H66.7346V13.775ZM66.0596 17.525V18.525H66.8956L67.0438 17.7022L66.0596 17.525ZM59.8096 17.525V16.525H58.9702L58.8247 17.3517L59.8096 17.525ZM59.2596 20.65L58.2747 20.4767L58.0682 21.65H59.2596V20.65ZM66.2596 20.65L67.2445 20.8227L67.4501 19.65H66.2596V20.65ZM65.5846 24.5V25.5H66.4245L66.5695 24.6727L65.5846 24.5ZM54.5846 24.5L53.5997 24.3269L53.3935 25.5H54.5846V24.5ZM57.6596 7V6H56.82L56.6747 6.82694L57.6596 7ZM68.5346 7L69.5195 7.17269L69.7252 6H68.5346V7ZM67.8596 9.85H60.9846V11.85H67.8596V9.85ZM60.0003 10.6733L59.4753 13.5983L61.4438 13.9517L61.9688 11.0267L60.0003 10.6733ZM60.4596 14.775H66.7346V12.775H60.4596V14.775ZM65.7504 13.5978L65.0754 17.3478L67.0438 17.7022L67.7188 13.9522L65.7504 13.5978ZM66.0596 16.525H59.8096V18.525H66.0596V16.525ZM58.8247 17.3517L58.2747 20.4767L60.2444 20.8233L60.7944 17.6983L58.8247 17.3517ZM59.2596 21.65H66.2596V19.65H59.2596V21.65ZM65.2746 20.4773L64.5996 24.3273L66.5695 24.6727L67.2445 20.8227L65.2746 20.4773ZM65.5846 23.5H54.5846V25.5H65.5846V23.5ZM55.5695 24.6731L58.6445 7.17306L56.6747 6.82694L53.5997 24.3269L55.5695 24.6731ZM57.6596 8H68.5346V6H57.6596V8ZM67.5496 6.82731L66.8746 10.6773L68.8446 11.0227L69.5195 7.17269L67.5496 6.82731Z" fill="black" fill-opacity="0.5" style="mix-blend-mode:overlay" mask="url(#path-2-outside-1_38_11)"/>
<defs>
<linearGradient id="paint0_linear_38_11" x1="0" y1="0" x2="26.201" y2="56.072" gradientUnits="userSpaceOnUse">
<stop stop-color="white"/>
<stop offset="1" stop-color="#0022FF"/>
</linearGradient>
</defs>
</svg>
