<svg width="28" height="28" viewBox="0 0 28 28" fill="none" xmlns="http://www.w3.org/2000/svg">
<path d="M13.8652 25.4191C20.2464 25.4191 25.4194 20.2461 25.4194 13.865C25.4194 7.48377 20.2464 2.31079 13.8652 2.31079C7.48401 2.31079 2.31104 7.48377 2.31104 13.865C2.31104 20.2461 7.48401 25.4191 13.8652 25.4191Z" stroke="#E2E2E2" stroke-width="1.5" stroke-linecap="round" stroke-linejoin="round"/>
<path d="M9.24336 3.46631H10.3988C8.14572 10.2139 8.14572 17.5162 10.3988 24.2638H9.24336" stroke="#E2E2E2" stroke-width="1.5" stroke-linecap="round" stroke-linejoin="round"/>
<path d="M17.3311 3.46631C19.5841 10.2139 19.5841 17.5162 17.3311 24.2638" stroke="#E2E2E2" stroke-width="1.5" stroke-linecap="round" stroke-linejoin="round"/>
<path d="M3.46631 18.4867V17.3313C10.2139 19.5844 17.5162 19.5844 24.2638 17.3313V18.4867" stroke="#E2E2E2" stroke-width="1.5" stroke-linecap="round" stroke-linejoin="round"/>
<path d="M3.46631 10.3988C10.2139 8.14572 17.5162 8.14572 24.2638 10.3988" stroke="#E2E2E2" stroke-width="1.5" stroke-linecap="round" stroke-linejoin="round"/>
</svg>
