<svg width="28" height="28" viewBox="0 0 28 28" fill="none" xmlns="http://www.w3.org/2000/svg">
<path d="M13.8074 20.7975C14.2118 20.7975 14.5536 20.6579 14.8329 20.3786C15.1121 20.0994 15.2517 19.7576 15.2517 19.3532C15.2517 18.9488 15.1121 18.607 14.8329 18.3278C14.5536 18.0486 14.2118 17.9089 13.8074 17.9089C13.403 17.9089 13.0612 18.0486 12.782 18.3278C12.5028 18.607 12.3632 18.9488 12.3632 19.3532C12.3632 19.7576 12.5028 20.0994 12.782 20.3786C13.0612 20.6579 13.403 20.7975 13.8074 20.7975ZM13.8652 25.4192C12.2669 25.4192 10.7648 25.1159 9.35908 24.5093C7.95332 23.9027 6.7305 23.0794 5.69063 22.0396C4.65075 20.9997 3.82752 19.7769 3.22093 18.3711C2.61433 16.9654 2.31104 15.4633 2.31104 13.865C2.31104 12.2667 2.61433 10.7646 3.22093 9.35886C3.82752 7.95311 4.65075 6.73029 5.69063 5.69042C6.7305 4.65054 7.95332 3.82731 9.35908 3.22071C10.7648 2.61412 12.2669 2.31082 13.8652 2.31082C15.4635 2.31082 16.9656 2.61412 18.3713 3.22071C19.7771 3.82731 20.9999 4.65054 22.0398 5.69042C23.0796 6.73029 23.9029 7.95311 24.5095 9.35886C25.1161 10.7646 25.4194 12.2667 25.4194 13.865C25.4194 15.4633 25.1161 16.9654 24.5095 18.3711C23.9029 19.7769 23.0796 20.9997 22.0398 22.0396C20.9999 23.0794 19.7771 23.9027 18.3713 24.5093C16.9656 25.1159 15.4635 25.4192 13.8652 25.4192ZM13.8652 23.1083C16.4456 23.1083 18.6313 22.2129 20.4222 20.422C22.2131 18.6311 23.1085 16.4454 23.1085 13.865C23.1085 11.2846 22.2131 9.09889 20.4222 7.308C18.6313 5.5171 16.4456 4.62165 13.8652 4.62165C11.2848 4.62165 9.09911 5.5171 7.30821 7.308C5.51732 9.09889 4.62187 11.2846 4.62187 13.865C4.62187 16.4454 5.51732 18.6311 7.30821 20.422C9.09911 22.2129 11.2848 23.1083 13.8652 23.1083ZM13.9807 8.8967C14.4622 8.8967 14.881 9.05075 15.2373 9.35886C15.5935 9.66697 15.7716 10.0521 15.7716 10.5143C15.7716 10.9379 15.6417 11.3134 15.3817 11.6408C15.1217 11.9682 14.828 12.2763 14.5007 12.5651C14.0578 12.9503 13.6678 13.3739 13.3308 13.8361C12.9938 14.2983 12.8253 14.8182 12.8253 15.3959C12.8253 15.6655 12.9264 15.8918 13.1286 16.0747C13.3308 16.2577 13.5667 16.3491 13.8363 16.3491C14.1252 16.3491 14.3707 16.2528 14.5729 16.0603C14.7751 15.8677 14.9051 15.627 14.9628 15.3381C15.0399 14.9337 15.2132 14.5727 15.4828 14.2549C15.7524 13.9372 16.0412 13.6339 16.3493 13.3451C16.7923 12.9214 17.1726 12.4592 17.4903 11.9586C17.8081 11.4579 17.9669 10.8994 17.9669 10.2832C17.9669 9.30109 17.5673 8.49712 16.7682 7.87126C15.969 7.24541 15.0399 6.93249 13.9807 6.93249C13.249 6.93249 12.5509 7.08654 11.8866 7.39465C11.2222 7.70277 10.7167 8.17456 10.3701 8.81004C10.2353 9.04112 10.1919 9.28665 10.2401 9.54662C10.2882 9.80659 10.4182 10.004 10.63 10.1388C10.8996 10.2928 11.1789 10.341 11.4677 10.2832C11.7566 10.2254 11.9973 10.0617 12.1898 9.79214C12.4017 9.50329 12.6665 9.28184 12.9842 9.12778C13.3019 8.97372 13.6341 8.8967 13.9807 8.8967Z" fill="white"/>
</svg>
