<svg width="28" height="29" viewBox="0 0 28 29" fill="none" xmlns="http://www.w3.org/2000/svg">
<path d="M5.77714 24.7237C5.14166 24.7237 4.59765 24.4975 4.14512 24.0449C3.69258 23.5924 3.46631 23.0484 3.46631 22.4129V6.23707C3.46631 5.60159 3.69258 5.05758 4.14512 4.60505C4.59765 4.15251 5.14166 3.92624 5.77714 3.92624H12.7096C13.037 3.92624 13.3114 4.03697 13.5329 4.25842C13.7543 4.47988 13.8651 4.75429 13.8651 5.08166C13.8651 5.40902 13.7543 5.68344 13.5329 5.90489C13.3114 6.12634 13.037 6.23707 12.7096 6.23707H5.77714V22.4129H12.7096C13.037 22.4129 13.3114 22.5236 13.5329 22.7451C13.7543 22.9665 13.8651 23.241 13.8651 23.5683C13.8651 23.8957 13.7543 24.1701 13.5329 24.3916C13.3114 24.613 13.037 24.7237 12.7096 24.7237H5.77714ZM19.8443 15.4804H11.5542C11.2269 15.4804 10.9524 15.3697 10.731 15.1482C10.5095 14.9268 10.3988 14.6524 10.3988 14.325C10.3988 13.9976 10.5095 13.7232 10.731 13.5018C10.9524 13.2803 11.2269 13.1696 11.5542 13.1696H19.8443L17.6779 11.0032C17.4661 10.7913 17.3602 10.5314 17.3602 10.2233C17.3602 9.91515 17.4661 9.64555 17.6779 9.41447C17.8898 9.18338 18.1594 9.06303 18.4867 9.0534C18.8141 9.04377 19.0933 9.1545 19.3244 9.38558L23.455 13.5162C23.6861 13.7473 23.8016 14.0169 23.8016 14.325C23.8016 14.6331 23.6861 14.9027 23.455 15.1338L19.3244 19.2644C19.0933 19.4955 18.8189 19.6062 18.5012 19.5966C18.1834 19.5869 17.909 19.4666 17.6779 19.2355C17.4661 19.0044 17.365 18.73 17.3746 18.4123C17.3843 18.0945 17.495 17.8298 17.7068 17.6179L19.8443 15.4804Z" fill="white"/>
</svg>
