<svg width="28" height="29" viewBox="0 0 28 29" fill="none" xmlns="http://www.w3.org/2000/svg">
<path d="M12.5072 26.1491C11.9872 26.1491 11.5395 25.9758 11.164 25.6292C10.7885 25.2826 10.5622 24.8589 10.4852 24.3582L10.2252 22.4518C9.9749 22.3555 9.739 22.24 9.51755 22.1052C9.29609 21.9704 9.07945 21.826 8.86762 21.6719L7.07673 22.4229C6.5953 22.6347 6.11388 22.654 5.63246 22.4807C5.15103 22.3074 4.77552 21.9993 4.50593 21.5564L3.14831 19.1877C2.87871 18.7448 2.80169 18.273 2.91723 17.7724C3.03277 17.2717 3.29274 16.8577 3.69713 16.5303L5.22806 15.3749C5.2088 15.2401 5.19918 15.1101 5.19918 14.9849V14.205C5.19918 14.0798 5.2088 13.9499 5.22806 13.8151L3.69713 12.6596C3.29274 12.3323 3.03277 11.9183 2.91723 11.4176C2.80169 10.9169 2.87871 10.4451 3.14831 10.0022L4.50593 7.63358C4.77552 7.19067 5.15103 6.88256 5.63246 6.70925C6.11388 6.53594 6.5953 6.55519 7.07673 6.76702L8.86762 7.51804C9.07945 7.36399 9.30091 7.21956 9.53199 7.08476C9.76307 6.94996 9.99416 6.83442 10.2252 6.73814L10.4852 4.8317C10.5622 4.33102 10.7885 3.90736 11.164 3.56074C11.5395 3.21411 11.9872 3.0408 12.5072 3.0408H15.2224C15.7424 3.0408 16.1901 3.21411 16.5656 3.56074C16.9411 3.90736 17.1674 4.33102 17.2444 4.8317L17.5044 6.73814C17.7547 6.83442 17.9906 6.94996 18.2121 7.08476C18.4335 7.21956 18.6502 7.36399 18.862 7.51804L20.6529 6.76702C21.1343 6.55519 21.6157 6.53594 22.0971 6.70925C22.5786 6.88256 22.9541 7.19067 23.2237 7.63358L24.5813 10.0022C24.8509 10.4451 24.9279 10.9169 24.8124 11.4176C24.6968 11.9183 24.4369 12.3323 24.0325 12.6596L22.5015 13.8151C22.5208 13.9499 22.5304 14.0798 22.5304 14.205V14.9849C22.5304 15.1101 22.5112 15.2401 22.4727 15.3749L24.0036 16.5303C24.408 16.8577 24.6679 17.2717 24.7835 17.7724C24.899 18.273 24.822 18.7448 24.5524 19.1877L23.1659 21.5564C22.8963 21.9993 22.5208 22.3074 22.0394 22.4807C21.558 22.654 21.0765 22.6347 20.5951 22.4229L18.862 21.6719C18.6502 21.826 18.4287 21.9704 18.1976 22.1052C17.9665 22.24 17.7354 22.3555 17.5044 22.4518L17.2444 24.3582C17.1674 24.8589 16.9411 25.2826 16.5656 25.6292C16.1901 25.9758 15.7424 26.1491 15.2224 26.1491H12.5072ZM12.7094 23.8383H14.9913L15.3957 20.7764C15.9927 20.6224 16.5463 20.3961 17.0566 20.0976C17.5669 19.7992 18.0339 19.4381 18.4576 19.0144L21.3172 20.1987L22.4438 18.2345L19.9596 16.357C20.0559 16.0874 20.1233 15.8033 20.1618 15.5049C20.2003 15.2064 20.2196 14.9031 20.2196 14.595C20.2196 14.2869 20.2003 13.9836 20.1618 13.6851C20.1233 13.3866 20.0559 13.1026 19.9596 12.833L22.4438 10.9554L21.3172 8.9912L18.4576 10.2044C18.0339 9.76148 17.5669 9.39078 17.0566 9.0923C16.5463 8.79381 15.9927 8.56754 15.3957 8.41349L15.0202 5.35164H12.7383L12.3339 8.41349C11.7369 8.56754 11.1833 8.79381 10.673 9.0923C10.1627 9.39078 9.69567 9.75185 9.27202 10.1755L6.41236 8.9912L5.28583 10.9554L7.76998 12.8041C7.67369 13.0929 7.60629 13.3818 7.56778 13.6706C7.52927 13.9595 7.51001 14.2676 7.51001 14.595C7.51001 14.9031 7.52927 15.2016 7.56778 15.4904C7.60629 15.7793 7.67369 16.0681 7.76998 16.357L5.28583 18.2345L6.41236 20.1987L9.27202 18.9856C9.69567 19.4285 10.1627 19.7992 10.673 20.0976C11.1833 20.3961 11.7369 20.6224 12.3339 20.7764L12.7094 23.8383ZM13.9226 18.6389C15.0395 18.6389 15.9927 18.2442 16.7822 17.4546C17.5718 16.6651 17.9665 15.7119 17.9665 14.595C17.9665 13.4781 17.5718 12.5248 16.7822 11.7353C15.9927 10.9458 15.0395 10.551 13.9226 10.551C12.7864 10.551 11.8284 10.9458 11.0485 11.7353C10.2686 12.5248 9.87861 13.4781 9.87861 14.595C9.87861 15.7119 10.2686 16.6651 11.0485 17.4546C11.8284 18.2442 12.7864 18.6389 13.9226 18.6389Z" fill="white"/>
</svg>
