<svg width="24" height="24" viewBox="0 0 24 24" fill="none" xmlns="http://www.w3.org/2000/svg">
<path d="M5.59033 6.36513H21.0031L18.638 14.6429H7.95546" stroke="#E8E8E8" stroke-width="1.6" stroke-miterlimit="10" stroke-linecap="round" stroke-linejoin="round"/>
<path d="M11.4994 19.3699C11.4994 20.023 10.9699 20.5525 10.3168 20.5525C9.66375 20.5525 9.13428 20.023 9.13428 19.3699C9.13428 18.7169 9.66375 18.1874 10.3168 18.1874C10.9699 18.1874 11.4994 18.7169 11.4994 19.3699Z" stroke="#E8E8E8" stroke-width="1.6" stroke-miterlimit="10" stroke-linecap="round" stroke-linejoin="round"/>
<path d="M17.4555 19.3699C17.4555 20.023 16.926 20.5525 16.2729 20.5525C15.6198 20.5525 15.0903 20.023 15.0903 19.3699C15.0903 18.7169 15.6198 18.1874 16.2729 18.1874C16.926 18.1874 17.4555 18.7169 17.4555 19.3699Z" stroke="#E8E8E8" stroke-width="1.6" stroke-miterlimit="10" stroke-linecap="round" stroke-linejoin="round"/>
<path d="M18.6372 17.0085H8.68555C7.80647 17.0085 7.2347 16.0834 7.62783 15.2971L7.95469 14.6435" stroke="#E8E8E8" stroke-width="1.6" stroke-miterlimit="10" stroke-linecap="round" stroke-linejoin="round"/>
<path d="M2 4.00004H4.91152C5.91831 7.52438 7.95225 14.6429 7.95225 14.6429" stroke="#E8E8E8" stroke-width="1.6" stroke-miterlimit="10" stroke-linecap="round" stroke-linejoin="round"/>
</svg>
