<svg width="24" height="24" viewBox="0 0 24 24" fill="none" xmlns="http://www.w3.org/2000/svg">
<path d="M19.6955 6.10352e-05C19.8349 8.33918e-05 19.9701 0.0474705 20.0791 0.134453C20.188 0.221435 20.2641 0.34285 20.295 0.47879L20.6354 1.97493C20.7125 2.31402 20.8839 2.6244 21.1298 2.8703C21.3756 3.11619 21.686 3.28757 22.0251 3.36469L23.5215 3.70506C23.6574 3.73602 23.7787 3.81221 23.8656 3.92114C23.9525 4.03007 23.9998 4.16528 23.9998 4.30463C23.9998 4.44397 23.9525 4.57918 23.8656 4.68811C23.7787 4.79704 23.6574 4.87323 23.5215 4.90419L22.0251 5.24456C21.686 5.32168 21.3756 5.49306 21.1298 5.73896C20.8839 5.98485 20.7125 6.29523 20.6354 6.63432L20.295 8.13046C20.2641 8.26632 20.1879 8.38764 20.0789 8.47453C19.97 8.56143 19.8348 8.60876 19.6955 8.60876C19.5561 8.60876 19.4209 8.56143 19.312 8.47453C19.2031 8.38764 19.1269 8.26632 19.0959 8.13046L18.7555 6.63432C18.6784 6.29523 18.507 5.98485 18.2612 5.73896C18.0153 5.49306 17.7049 5.32168 17.3658 5.24456L15.8694 4.90419C15.7335 4.87323 15.6122 4.79704 15.5253 4.68811C15.4384 4.57918 15.3911 4.44397 15.3911 4.30463C15.3911 4.16528 15.4384 4.03007 15.5253 3.92114C15.6122 3.81221 15.7335 3.73602 15.8694 3.70506L17.3658 3.36469C17.7049 3.28757 18.0153 3.11619 18.2612 2.8703C18.507 2.6244 18.6784 2.31402 18.7555 1.97493L19.0959 0.47879C19.1268 0.34285 19.2029 0.221435 19.3119 0.134453C19.4208 0.0474705 19.5561 8.33918e-05 19.6955 6.10352e-05Z" fill="#E2E2E2"/>
<path d="M20.3257 9.8033L20.5512 10.8383C20.6997 11.5201 20.7744 12.2158 20.7739 12.9136M20.3257 9.8033L17.1307 8.14287M20.3257 9.8033L19.5539 10.5289M20.3257 9.8033L19.5539 10.5289M20.7739 12.9136L20.1739 12.9132H20.7739C20.7739 12.9133 20.7739 12.9134 20.7739 12.9136ZM20.7739 12.9136C20.7737 18.2633 16.4367 22.6001 11.087 22.6001C5.73704 22.6001 1.4 18.2631 1.4 12.9132C1.4 7.56327 5.73704 3.22623 11.087 3.22623C11.7988 3.22623 12.493 3.30328 13.1618 3.44898L14.1967 3.67442L13.4713 4.44616C13.3244 4.60242 13.2214 4.79471 13.1728 5.00356C13.1241 5.21242 13.1314 5.43042 13.1941 5.63552C13.2567 5.84062 13.3724 6.02553 13.5295 6.17155C13.6866 6.31756 13.8794 6.41949 14.0885 6.46703L14.0886 6.46705L15.8573 6.86941C15.8573 6.86942 15.8573 6.86942 15.8573 6.86942C16.168 6.94009 16.4524 7.09713 16.6777 7.32244C16.903 7.54775 17.0601 7.83216 17.1307 8.14286L17.1307 8.14287M17.1307 8.14287L17.5331 9.9119M17.1307 8.14287L17.5331 9.9119M17.5331 9.9119C17.5331 9.91191 17.5331 9.91191 17.5331 9.91191C17.5943 10.181 17.7451 10.4212 17.9607 10.5934C18.1764 10.7655 18.4441 10.8592 18.72 10.8593L17.5331 9.9119ZM19.5539 10.5289C19.3338 10.7359 19.0391 10.8593 18.7201 10.8593L19.5539 10.5289ZM10.96 13.6401V13.0401H10.36H6.72522C6.69155 13.0401 6.65925 13.0268 6.63545 13.003C6.61164 12.9792 6.59826 12.9469 6.59826 12.9132C6.59826 12.8795 6.61164 12.8472 6.63545 12.8234C6.65925 12.7996 6.69155 12.7862 6.72522 12.7862H10.36H10.96V12.1862V8.55145C10.96 8.51778 10.9734 8.48549 10.9972 8.46168L10.5979 8.06237L10.9972 8.46168C11.021 8.43787 11.0533 8.42449 11.087 8.42449C11.1206 8.42449 11.1529 8.43787 11.1767 8.46168C11.2005 8.48549 11.2139 8.51778 11.2139 8.55145V12.1862V12.7862H11.8139H15.4487C15.4824 12.7862 15.5147 12.7996 15.5385 12.8234C15.5623 12.8472 15.5757 12.8795 15.5757 12.9132C15.5757 12.9469 15.5623 12.9792 15.5385 13.003C15.5147 13.0268 15.4824 13.0401 15.4487 13.0401H11.8139H11.2139V13.6401V17.2749C11.2139 17.3086 11.2005 17.3409 11.1767 17.3647C11.1529 17.3885 11.1206 17.4019 11.087 17.4019C11.0533 17.4019 11.021 17.3885 10.9972 17.3647C10.9734 17.3409 10.96 17.3086 10.96 17.2749V13.6401Z" stroke="#E2E2E2" stroke-width="1.2"/>
</svg>
