<svg width="18" height="18" viewBox="0 0 18 18" fill="none" xmlns="http://www.w3.org/2000/svg">
<g clip-path="url(#clip0_2366_3351)">
<path d="M9 0C4.02961 0 0 4.02961 0 9C0 13.9704 4.02961 18 9 18C13.9704 18 18 13.9704 18 9C18 4.02961 13.9704 0 9 0ZM3.87316 8.67832C3.92238 8.21285 3.96844 7.73438 4.11328 7.28016C5.06426 4.07531 9.20672 2.8002 11.8072 4.88672C11.983 3.95508 13.3242 4.05492 13.3541 5.0175C13.365 5.34375 13.3541 5.66121 13.3569 5.98535C13.3678 6.7057 13.4378 7.44609 12.498 7.47141C11.9939 7.47352 11.5239 7.47352 10.98 7.47141C10.0547 7.51254 9.7875 6.3 10.6014 5.98078C9.59168 5.33953 8.53348 5.25832 7.45664 5.72133C6.29648 6.21809 5.61727 7.12969 5.4334 8.43117C5.41863 8.53664 5.41441 8.65125 5.40703 8.76199C5.3782 9.20777 5.0625 9.51926 4.63922 9.51926C4.19238 9.52734 3.81445 9.12656 3.87316 8.67832ZM9.18809 14.1328C8.10885 14.1357 7.05979 13.7768 6.20859 13.1133C6.0634 14.0179 4.69371 13.9493 4.66945 13.0243C4.65961 12.471 4.65926 11.9021 4.66945 11.2862C4.67543 10.8527 5.00203 10.5335 5.44605 10.5275C5.71078 10.524 5.99062 10.5223 6.2775 10.5223C6.54539 10.5223 6.82031 10.5223 7.11809 10.5268C7.98926 10.5107 8.21953 11.7186 7.43062 12.022C9.56602 13.4262 12.5448 11.8346 12.581 9.26578C12.5606 8.79258 12.8837 8.37949 13.3608 8.38688C13.466 8.38624 13.5702 8.40652 13.6675 8.44653C13.7648 8.48654 13.8532 8.5455 13.9275 8.61996C13.9957 8.69028 14.0489 8.77364 14.0841 8.86504C14.1192 8.95645 14.1356 9.05401 14.1321 9.15188C14.2123 11.8586 11.8895 14.1711 9.18809 14.1328Z" fill="white"/>
</g>
<defs>
<clipPath id="clip0_2366_3351">
<rect width="18" height="18" fill="white"/>
</clipPath>
</defs>
</svg>
